<svg xmlns="http://www.w3.org/2000/svg" width="1067" height="648" fill-rule="evenodd" clip-rule="evenodd" image-rendering="optimizeQuality" shape-rendering="geometricPrecision" text-rendering="geometricPrecision"><path fill="#00adef" d="M329.5-.5h5a192362 192362 0 0 0 367 648h-181a74671 74671 0 0 1-185.5-312A47881 47881 0 0 1 243.5 522q61.499.75 123 .5a19 19 0 0 1-1.5 8 4819 4819 0 0 0-59.5 117H-.5v-5a292625 292625 0 0 0 330-643" opacity=".993"/><path fill="#00adef" d="M360.5-.5h706v5a865 865 0 0 1-40.5 78 1280 1280 0 0 1-39.5 77.5q-175.002.25-350 1.5a7224 7224 0 0 0 57 100.5l237 1q.686.621 1 1.5a35187 35187 0 0 1-61 121.5q-53.007.25-106 1.5a2752 2752 0 0 1 54 96.5 12450 12450 0 0 1-82 163.5h-4a219933 219933 0 0 1-372-648" opacity=".994"/></svg>